# xmcd
#
# Track frame offsets:
#	150
#	14705
#	31015
#	48980
#	62134
#	79726
#	95652
#	119580
#	139230
#	157459
#
# Disc length: 2532 seconds
# Revision: 2
# Processed by: cddbd v1.5.2PL0 Copyright (c) Steve Scherf et al.
# Submitted via: dBpowerAMP V12.0
#
DISCID=8e09e20a
DTITLE=MonkeyJunk - All Frequencies
DYEAR=2013
DGENRE=Blues
TTITLE0=You Make a Mess
TTITLE1=Right From Wrong
TTITLE2=Why Are People Like That?
TTITLE3=Je Nah Say Kwah
TTITLE4=Sirens In the Night
TTITLE5=Yearnin' For Yesterday
TTITLE6=Once Had Wings
TTITLE7=What I Got To Give
TTITLE8=Say What?
TTITLE9=Swank
EXTD=
EXTT0=
EXTT1=
EXTT2=
EXTT3=
EXTT4=
EXTT5=
EXTT6=
EXTT7=
EXTT8=
EXTT9=
PLAYORDER=
